squats_1_grf
version=1
nRows=24
nColumns=19
inDegrees=no
endheader
time	ground_force_right_vx	ground_force_right_vy	ground_force_right_vz	ground_force_right_px	ground_force_right_py	ground_force_right_pz	ground_force_right_mx	ground_force_right_my	ground_force_right_mz	ground_force_left_vx	ground_force_left_vy	ground_force_left_vz	ground_force_left_px	ground_force_left_py	ground_force_left_pz	ground_force_left_mx	ground_force_left_my	ground_force_left_mz
     33.08400000	     -0.04492674	    362.60835294	     61.42402584	     -3.48999591	      0.00736307	      2.27445061	     -0.02688938	      9.22506308	      0.04176879	     -4.17616301	    301.78399689	    -54.41355551	     -3.51654169	      0.00784329	      2.69827924	      0.02355035	     -7.08812951	      0.01230838
     33.08500000	     -0.05745133	    363.48689560	     61.48065115	     -3.49004999	      0.00736281	      2.27447333	     -0.02692878	      9.23857914	      0.04182999	     -4.21501680	    302.21943141	    -54.56369456	     -3.51667448	      0.00784287	      2.69829004	      0.02353806	     -7.08442935	      0.01230196
     33.08600000	     -0.07432429	    364.36536596	     61.53753976	     -3.49010205	      0.00736256	      2.27449618	     -0.02696769	      9.25192738	      0.04189042	     -4.24879437	    302.66314737	    -54.71283144	     -3.51680620	      0.00784245	      2.69829942	      0.02352701	     -7.08110587	      0.01229619
     33.08700000	     -0.09534148	    365.24144809	     61.59467281	     -3.49015229	      0.00736231	      2.27451903	     -0.02700605	      9.26508926	      0.04195002	     -4.27707382	    303.11560089	    -54.86087391	     -3.51693690	      0.00784203	      2.69830725	      0.02351729	     -7.07817825	      0.01229110
     33.08800000	     -0.12026460	    366.11282233	     61.65202509	     -3.49020089	      0.00736206	      2.27454178	     -0.02704382	      9.27804593	      0.04200868	     -4.29945692	    303.57719831	    -55.00773459	     -3.51706664	      0.00784160	      2.69831344	      0.02350893	     -7.07566385	      0.01228674
     33.08900000	     -0.14882138	    366.97718095	     61.70956388	     -3.49024807	      0.00736182	      2.27456431	     -0.02708093	      9.29077810	      0.04206633	     -4.31557350	    304.04829105	    -55.15332936	     -3.51719549	      0.00784118	      2.69831787	      0.02350200	     -7.07357840	      0.01228311
     33.09000000	     -0.18070616	    367.83224386	     61.76724802	     -3.49029403	      0.00736159	      2.27458651	     -0.02711733	      9.30326592	      0.04212287	     -4.32508584	    304.52917037	    -55.29757566	     -3.51732354	      0.00784076	      2.69832048	      0.02349655	     -7.07193613	      0.01228026
     33.09100000	     -0.21558077	    368.67577419	     61.82502703	     -3.49033899	      0.00736136	      2.27460827	     -0.02715296	      9.31548897	      0.04217822	     -4.32769292	    305.02006212	    -55.44039062	     -3.51745088	      0.00784034	      2.69832117	      0.02349261	     -7.07074989	      0.01227820
     33.09200000	     -0.25307586	    369.50559345	     61.88284048	     -3.49038318	      0.00736113	      2.27462952	     -0.02718775	      9.32742620	      0.04223226	     -4.32313460	    305.52112170	    -55.58168924	     -3.51757761	      0.00783992	      2.69831990	      0.02349022	     -7.07003130	      0.01227695
     33.09300000	     -0.29279257	    370.31959628	     61.94061757	     -3.49042682	      0.00736091	      2.27465015	     -0.02722165	      9.33905590	      0.04228492	     -4.31119544	    306.03242914	    -55.72138264	     -3.51770381	      0.00783949	      2.69831661	      0.02348942	     -7.06979084	      0.01227654
     33.09400000	     -0.33430459	    371.11576458	     61.99827689	     -3.49047013	      0.00736070	      2.27467010	     -0.02725459	      9.35035577	      0.04233608	     -4.29170824	    306.55398460	    -55.85937631	     -3.51782960	      0.00783907	      2.69831127	      0.02349024	     -7.07003794	      0.01227697
     33.09500000	     -0.37716047	    371.89218075	     62.05572645	     -3.49051335	      0.00736048	      2.27468929	     -0.02728650	      9.36130301	      0.04238565	     -4.26455709	    307.08570445	    -55.99556868	     -3.51795506	      0.00783864	      2.69830385	      0.02349271	     -7.07078103	      0.01227826
     33.09600000	     -0.42088631	    372.64704005	     62.11286396	     -3.49055672	      0.00736027	      2.27470767	     -0.02731731	      9.37187439	      0.04243351	     -4.22967998	    307.62741789	    -56.12984976	     -3.51808031	      0.00783820	      2.69829435	      0.02349685	     -7.07202756	      0.01228042
     33.09700000	     -0.46498869	    373.37866191	     62.16957725	     -3.49060046	      0.00736007	      2.27472518	     -0.02734696	      9.38204643	      0.04247957	     -4.18707068	    308.17886458	    -56.26210018	     -3.51820543	      0.00783777	      2.69828276	      0.02350269	     -7.07378404	      0.01228347
     33.09800000	     -0.50895779	    374.08549986	     62.22574504	     -3.49064479	      0.00735986	      2.27474179	     -0.02737538	      9.39179565	      0.04252371	     -4.13678008	    308.73969312	    -56.39219042	     -3.51833052	      0.00783733	      2.69826910	      0.02351024	     -7.07605597	      0.01228742
     33.09900000	     -0.55227076	    374.76615031	     62.28123782	     -3.49068996	      0.00735966	      2.27475747	     -0.02740250	      9.40109875	      0.04256584	     -4.07891674	    309.30946065	    -56.51998039	     -3.51845566	      0.00783689	      2.69825339	      0.02351951	     -7.07884782	      0.01229226
     33.10000000	     -0.59439525	    375.41935981	     62.33591889	     -3.49073618	      0.00735946	      2.27477219	     -0.02742825	      9.40993293	      0.04260583	     -4.01364667	    309.88763362	    -56.64531934	     -3.51858095	      0.00783644	      2.69823566	      0.02353053	     -7.08216296	      0.01229802
     33.10100000	     -0.63479302	    376.04403071	     62.38964556	     -3.49078367	      0.00735926	      2.27478595	     -0.02745256	      9.41827623	      0.04264361	     -3.94119245	    310.47358977	    -56.76804604	     -3.51870646	      0.00783599	      2.69821595	      0.02354329	     -7.08600355	      0.01230469
     33.10200000	     -0.67292375	    376.63922541	     62.44227040	     -3.49083263	      0.00735906	      2.27479875	     -0.02747539	      9.42610782	      0.04267907	     -3.86183153	    311.06662128	    -56.88798932	     -3.51883224	      0.00783553	      2.69819431	      0.02355780	     -7.09037046	      0.01231227
     33.10300000	     -0.70824885	    377.20416875	     62.49364255	     -3.49088328	      0.00735886	      2.27481058	     -0.02749667	      9.43340840	      0.04271213	     -3.77589376	    311.66593919	    -57.00496891	     -3.51895838	      0.00783507	      2.69817081	      0.02357405	     -7.09526313	      0.01232077
     33.10400000	     -0.74023529	    377.73824892	     62.54360905	     -3.49093580	      0.00735865	      2.27482148	     -0.02751635	      9.44016059	      0.04274270	     -3.68375837	    312.27067897	    -57.11879653	     -3.51908490	      0.00783461	      2.69814550	      0.02359205	     -7.10067949	      0.01233017
     33.10500000	     -0.76835947	    378.24101654	     62.59201610	     -3.49099036	      0.00735845	      2.27483146	     -0.02753439	      9.44634922	      0.04277072	     -3.58585015	    312.87990712	    -57.22927720	     -3.51921186	      0.00783414	      2.69811846	      0.02361177	     -7.10661578	      0.01234048
     33.10600000	     -0.79211096	    378.71218230	     62.63871032	     -3.49104714	      0.00735824	      2.27484055	     -0.02755075	      9.45196179	      0.04279613	     -3.48263514	    313.49262890	    -57.33621085	     -3.51933929	      0.00783367	      2.69808976	      0.02363320	     -7.11306650	      0.01235168
     33.10700000	     -0.81099614	    379.15161298	     62.68353993	     -3.49110629	      0.00735803	      2.27484880	     -0.02756540	      9.45698878	      0.04281889	     -3.37461580	    314.10779681	    -57.43939401	     -3.51946720	      0.00783319	      2.69805947	      0.02365632	     -7.12002428	      0.01236377
